<svg width="461" height="461" viewBox="0 0 461 461" fill="none" xmlns="http://www.w3.org/2000/svg">
<circle cx="230.5" cy="230.5" r="230.5" fill="black"/>
<path d="M31.7273 240.364L35.3636 218.545L107.364 191.455L103.545 214.364L58.0909 229.273L59 228.182L58.4545 230.727L57.9091 229.636L98.6364 244.545L94.8182 267.455L31.7273 240.364ZM109.932 276L125.386 182.909H192.477L189.023 203.273H147.205L144.659 219.273H183.023L179.568 239.636H141.205L138.659 255.636H180.295L176.841 276H109.932ZM215.102 276.909C210.133 276.909 205.769 275.606 202.011 273C198.284 270.394 195.602 266.439 193.966 261.136C192.36 255.833 192.223 249.152 193.557 241.091C194.951 232.667 197.39 225.818 200.875 220.545C204.39 215.273 208.42 211.409 212.966 208.955C217.542 206.5 222.133 205.273 226.739 205.273C230.193 205.273 233.117 205.879 235.511 207.091C237.936 208.273 239.86 209.864 241.284 211.864C242.708 213.833 243.678 216 244.193 218.364H244.557L250.466 182.909H275.557L260.102 276H235.193L237.102 264.545H236.557C235.193 266.909 233.451 269.03 231.33 270.909C229.239 272.758 226.83 274.227 224.102 275.318C221.375 276.379 218.375 276.909 215.102 276.909ZM227.557 257.636C229.86 257.636 231.951 256.97 233.83 255.636C235.708 254.273 237.299 252.364 238.602 249.909C239.905 247.424 240.83 244.485 241.375 241.091C241.951 237.636 241.996 234.682 241.511 232.227C241.027 229.742 240.057 227.848 238.602 226.545C237.178 225.212 235.314 224.545 233.011 224.545C230.708 224.545 228.633 225.212 226.784 226.545C224.936 227.848 223.375 229.742 222.102 232.227C220.86 234.682 219.951 237.636 219.375 241.091C218.799 244.545 218.723 247.515 219.148 250C219.602 252.455 220.542 254.348 221.966 255.682C223.39 256.985 225.254 257.636 227.557 257.636ZM359.739 178.545L311.375 290H290.102L338.466 178.545H359.739ZM427.034 249.091L354.852 276.182L358.67 253.273L404.125 238.364L403.216 239.455L403.761 236.909L404.307 238L363.58 223.091L367.398 200.182L430.67 227.273L427.034 249.091Z" fill="white"/>
</svg>
