<svg width="412" height="399" viewBox="0 0 412 399" fill="none" xmlns="http://www.w3.org/2000/svg">
<rect width="412" height="399" rx="199.5" fill="black"/>
<path d="M19.2125 209.045V193.045L83.2125 164.864V183.273L39.3943 200.864L39.9852 199.909V202.182L39.3943 201.227L83.2125 218.818V237.227L19.2125 209.045ZM100.243 247V153.909H136.971C144.001 153.909 150.001 155.167 154.971 157.682C159.971 160.167 163.774 163.697 166.38 168.273C169.016 172.818 170.334 178.167 170.334 184.318C170.334 190.5 169.001 195.818 166.334 200.273C163.668 204.697 159.804 208.091 154.743 210.455C149.713 212.818 143.622 214 136.471 214H111.88V198.182H133.289C137.046 198.182 140.168 197.667 142.652 196.636C145.137 195.606 146.986 194.061 148.198 192C149.44 189.939 150.062 187.379 150.062 184.318C150.062 181.227 149.44 178.621 148.198 176.5C146.986 174.379 145.122 172.773 142.607 171.682C140.122 170.561 136.986 170 133.198 170H119.925V247H100.243ZM150.516 204.636L173.652 247H151.925L129.289 204.636H150.516ZM239.411 197.091L221.683 198.182C221.38 196.667 220.729 195.303 219.729 194.091C218.729 192.848 217.411 191.864 215.774 191.136C214.168 190.379 212.244 190 210.002 190C207.002 190 204.471 190.636 202.411 191.909C200.35 193.152 199.32 194.818 199.32 196.909C199.32 198.576 199.986 199.985 201.32 201.136C202.653 202.288 204.941 203.212 208.183 203.909L220.82 206.455C227.608 207.848 232.668 210.091 236.002 213.182C239.335 216.273 241.002 220.333 241.002 225.364C241.002 229.939 239.653 233.955 236.956 237.409C234.289 240.864 230.623 243.561 225.956 245.5C221.32 247.409 215.971 248.364 209.911 248.364C200.668 248.364 193.305 246.439 187.82 242.591C182.365 238.712 179.168 233.439 178.229 226.773L197.274 225.773C197.85 228.591 199.244 230.742 201.456 232.227C203.668 233.682 206.502 234.409 209.956 234.409C213.35 234.409 216.077 233.758 218.138 232.455C220.229 231.121 221.289 229.409 221.32 227.318C221.289 225.561 220.547 224.121 219.092 223C217.638 221.848 215.396 220.97 212.365 220.364L200.274 217.955C193.456 216.591 188.38 214.227 185.047 210.864C181.744 207.5 180.092 203.212 180.092 198C180.092 193.515 181.305 189.652 183.729 186.409C186.183 183.167 189.623 180.667 194.047 178.909C198.502 177.152 203.714 176.273 209.683 176.273C218.502 176.273 225.441 178.136 230.502 181.864C235.593 185.591 238.562 190.667 239.411 197.091ZM318.245 149.545L288.245 261H271.563L301.563 149.545H318.245ZM392.788 217.773L328.788 245.955V227.545L372.606 209.955L372.015 210.909V208.636L372.606 209.591L328.788 192V173.591L392.788 201.773V217.773Z" fill="white"/>
</svg>
